<svg width="198" height="197" viewBox="0 0 198 197" fill="none" xmlns="http://www.w3.org/2000/svg">
<g clip-path="url(#clip0_203_49)">
<path d="M98.9984 197C96.7525 197 94.5129 196.924 92.3459 196.779C90.1063 196.63 87.8636 196.403 85.6745 196.103C84.7111 195.973 83.8392 195.844 83.0085 195.708C80.5414 195.307 78.0302 194.798 75.5473 194.192C74.6976 193.986 73.8637 193.772 73.074 193.55C72.796 193.478 72.5117 193.399 72.2306 193.32C71.0302 192.982 69.8678 192.631 68.7811 192.277C68.7116 192.258 68.6295 192.23 68.5474 192.205C67.565 191.889 66.5415 191.538 65.5086 191.162C64.6367 190.846 63.7523 190.512 62.8046 190.139C60.8304 189.362 58.8529 188.503 56.9261 187.59C56.1237 187.214 55.2866 186.8 54.3643 186.332C54.2 186.25 54.0326 186.165 53.8683 186.08L53.6788 185.982C42.8503 180.359 33.2507 172.856 25.1514 163.686C9.25626 145.686 0.5 122.535 0.5 98.4984C0.5 72.1877 10.7472 47.4502 29.3495 28.8473C47.9518 10.2444 72.6886 0 98.9984 0C125.308 0 150.045 10.2444 168.65 28.8473C187.256 47.4502 197.5 72.1877 197.5 98.4984C197.5 113.958 194.019 128.758 187.158 142.486C180.613 155.577 171.032 167.262 159.446 176.274C156.723 178.397 153.855 180.394 150.923 182.213C147.951 184.064 144.833 185.779 141.655 187.308C140.948 187.65 140.189 188.003 139.267 188.417L139.179 188.455C139.065 188.506 138.951 188.556 138.838 188.604C138.149 188.91 137.448 189.21 136.756 189.494L136.443 189.627C136.247 189.709 136.064 189.785 135.881 189.854C133.534 190.802 131.168 191.655 128.849 192.385C128.666 192.448 128.48 192.505 128.29 192.562L128.126 192.612C126.199 193.209 124.171 193.765 122.108 194.261C114.594 196.074 106.817 196.994 98.9984 196.994L98.9984 197ZM98.9984 0.631785C72.856 0.631785 48.2804 10.8098 29.7949 29.2959C11.3127 47.7787 1.13176 72.3552 1.13176 98.4984C1.13176 122.383 9.83116 145.383 25.6284 163.266C33.6771 172.376 43.2136 179.831 53.9726 185.416L54.1621 185.514C54.3232 185.599 54.4874 185.682 54.6517 185.764C55.5709 186.231 56.4017 186.642 57.1977 187.015C59.112 187.921 61.0768 188.774 63.0384 189.545C63.9797 189.918 64.8579 190.249 65.7234 190.562C66.75 190.935 67.7671 191.282 68.7464 191.598C68.8222 191.624 68.8948 191.646 68.9675 191.668C70.0573 192.022 71.2071 192.369 72.4011 192.707C72.676 192.786 72.9571 192.865 73.2351 192.938C74.0248 193.156 74.8492 193.37 75.6926 193.576C78.1628 194.179 80.6552 194.688 83.1096 195.083C83.934 195.218 84.7995 195.348 85.7566 195.477C87.9299 195.774 90.16 196.002 92.3839 196.147C94.5382 196.292 96.762 196.368 98.9921 196.368C106.763 196.368 114.486 195.455 121.957 193.655C124.007 193.162 126.019 192.609 127.94 192.015L128.104 191.965C128.287 191.908 128.467 191.854 128.65 191.791C130.959 191.064 133.313 190.218 135.647 189.273C135.83 189.201 136.007 189.128 136.184 189.055L136.573 188.894C137.239 188.619 137.915 188.329 138.585 188.032C138.702 187.981 138.809 187.934 138.92 187.883L139.008 187.845C139.924 187.432 140.679 187.081 141.38 186.743C144.539 185.224 147.638 183.521 150.592 181.679C153.504 179.872 156.353 177.885 159.06 175.778C170.571 166.82 180.092 155.211 186.596 142.205C193.413 128.568 196.871 113.863 196.871 98.5016C196.871 72.3583 186.691 47.7819 168.205 29.299C149.72 10.8098 125.141 0.631785 98.9984 0.631785Z" fill="#DADBDC"/>
<path d="M87.0425 134.611L110.977 140.345L108.2 106.803L87.0614 108.553L87.0425 134.611Z" fill="#F3A3A6"/>
<path d="M104.163 116.406C117.031 116.406 127.463 105.974 127.463 93.1061C127.463 80.2378 117.031 69.8059 104.163 69.8059C91.2953 69.8059 80.8638 80.2378 80.8638 93.1061C80.8638 105.974 91.2953 116.406 104.163 116.406Z" fill="#F3A3A6"/>
<path d="M128.754 192.088C128.568 192.151 128.385 192.208 128.198 192.265C128.145 192.281 128.091 192.299 128.037 192.315C126.063 192.928 124.06 193.475 122.036 193.961C114.647 195.743 106.93 196.684 98.9983 196.684C96.7682 196.684 94.557 196.611 92.3679 196.463C90.1283 196.314 87.9109 196.09 85.7186 195.79C84.8278 195.67 83.9434 195.541 83.0621 195.395C80.5508 194.988 78.068 194.479 75.623 193.882C74.7986 193.683 73.9773 193.471 73.1591 193.244C72.878 193.171 72.5969 193.092 72.3189 193.013C71.1659 192.688 70.0193 192.344 68.8821 191.974C68.8063 191.952 68.7273 191.927 68.6515 191.901C67.6344 191.573 66.6235 191.225 65.619 190.862C64.7156 190.537 63.8185 190.196 62.9246 189.842C60.9377 189.058 58.9855 188.212 57.0649 187.302L57.8041 183.954L60.3659 172.354L65.9286 147.152L71.5513 121.685L86.3251 122.096H86.3314L87.0516 122.118L109.52 122.743L119.351 123.018L128.754 192.088Z" fill="#DADBDC"/>
<path d="M150.759 181.945C147.783 183.799 144.697 185.495 141.519 187.024C140.733 187.403 139.937 187.77 139.138 188.13C138.995 188.193 138.856 188.256 138.714 188.316C138.026 188.623 137.334 188.92 136.636 189.207L136.323 189.34C136.14 189.415 135.957 189.491 135.77 189.564C133.474 190.493 131.136 191.339 128.758 192.088C128.571 192.151 128.388 192.208 128.202 192.265L107.594 139.533L106.201 135.973L102.315 126.025L101.026 122.731L109.533 122.863L119.354 123.018C128.268 124.158 135.66 130.467 138.19 139.087L150.762 181.945L150.759 181.945Z" fill="#DADBDC"/>
<path d="M87.8196 103.752C88.6472 103.613 89.4748 103.471 90.3024 103.332C90.4982 98.9059 90.9247 93.9685 94.2383 91.0275C96.0641 89.407 98.7049 88.4625 99.6114 86.1944C100.363 84.3148 99.662 82.0056 100.711 80.2745C101.813 78.4518 104.277 78.1265 106.406 77.9938C109.739 77.7885 113.131 77.5863 116.375 78.376C119.619 79.1689 122.75 81.1211 124.133 84.16C124.56 85.0951 124.806 86.1027 125.053 87.101C125.883 90.4779 127.156 96.9031 127.156 96.9031C127.156 96.9031 127.403 95.5732 128.104 92.986C129.535 90.9391 131.282 89.05 132.122 86.6998C133.133 83.8694 132.687 80.7073 131.696 77.8738C129.443 71.4264 124.219 65.9773 117.712 63.905C111.201 61.8359 105.045 60.6639 100.18 65.4592C99.2671 66.3595 98.4458 67.364 97.4034 68.1095C95.4765 69.49 93.0158 69.8375 90.8426 70.7915C86.0064 72.9143 81.6346 78.0191 80.5448 83.1871C79.455 88.3551 80.0236 93.7095 80.5985 98.9627C81.0944 103.493 83.2456 108.544 87.0172 111.102C87.172 108.784 87.3268 106.468 87.4816 104.15L87.8164 103.755H87.8196V103.752Z" fill="#2F2E43"/>
<path d="M100.717 125.536L100.489 125.908L94.1276 136.308L84.6953 151.736L82.7843 154.86L75.8159 166.257C75.8159 166.257 73.5542 169.438 69.7383 173.517L69.7257 173.529C68.339 175.008 66.7501 176.603 64.9906 178.204C64.978 178.22 64.9653 178.233 64.9495 178.242C62.8015 180.201 60.4008 182.169 57.8043 183.954C56.7366 184.69 55.6373 185.391 54.5128 186.048C54.2822 185.934 54.0548 185.814 53.8273 185.697C43.0178 180.084 33.3834 172.522 25.3916 163.474C33.7341 150.15 50.2421 135.208 60.8778 126.31C66.8954 121.271 74.9346 119.373 82.5663 121.199L86.3253 122.096L87.0518 122.269L100.717 125.536Z" fill="#DADBDC"/>
<path d="M130.397 122.329C126.3 120.854 115.456 120.848 110.591 122.49C109.647 122.81 109.075 123.77 109.239 124.752L109.432 125.918C109.008 125.855 108.595 125.735 108.203 125.555C107.044 125.024 104.76 124.304 102.454 125.454C100.843 126.256 99.7089 127.769 99.3109 129.529C98.3601 133.736 100.758 136.064 100.758 136.064L103.951 139.062C106.627 141.57 109.545 143.807 112.663 145.734L112.726 145.772L111.589 138.93C110.948 140.057 109.498 140.427 108.396 139.744C105.61 138.02 101.058 134.564 101.61 130.64C101.996 127.905 103.515 127.324 104.975 127.447C106.608 127.586 108.032 128.612 108.73 130.094C108.898 130.448 109.173 130.738 109.514 130.928L110.335 131.377L112.742 145.879C112.85 146.53 113.267 147.092 113.857 147.383C119.518 150.159 125.627 148.719 127.74 148.071C128.224 147.923 128.637 147.604 128.896 147.168L129.351 146.413C129.509 146.154 129.604 145.86 129.636 145.56L131.736 124.452C131.828 123.52 131.275 122.648 130.394 122.329L130.397 122.329Z" fill="#F9A826"/>
<path d="M120.589 124.348C125.845 124.348 130.106 123.946 130.106 123.451C130.106 122.955 125.845 122.554 120.589 122.554C115.332 122.554 111.071 122.955 111.071 123.451C111.071 123.946 115.332 124.348 120.589 124.348Z" fill="#DEDFE0"/>
<path d="M101.576 141.431C106.741 137.48 108.784 131.538 106.14 128.161C103.5 124.784 97.1725 125.248 92.0047 129.203C89.9199 130.754 88.252 132.795 87.1496 135.155L65.4927 152.178L74.091 162.464L94.5286 144.587C97.1157 144.123 99.5322 143.039 101.573 141.431H101.576Z" fill="#F3A3A6"/>
<path d="M87.2475 156.221L78.6808 141.153L47.5063 155.823L64.9494 178.245L87.2475 156.221Z" fill="#DADBDC"/>
<path opacity="0.1" d="M68.5633 145.914C68.5633 145.914 45.8387 162.552 46.679 162.46C47.5192 162.369 58.7236 156.206 58.7236 156.206L68.5633 145.914Z" fill="#272223"/>
</g>
<defs>
<clipPath id="clip0_203_49">
<rect width="197" height="197" fill="white" transform="translate(0.5)"/>
</clipPath>
</defs>
</svg>
